<?xml version="1.0" standalone="no"?><!DOCTYPE svg PUBLIC "-//W3C//DTD SVG 1.1//EN" "http://www.w3.org/Graphics/SVG/1.1/DTD/svg11.dtd"><svg t="1772529906510" class="icon" viewBox="0 0 1024 1024" version="1.1" xmlns="http://www.w3.org/2000/svg" p-id="1667" xmlns:xlink="http://www.w3.org/1999/xlink" width="256" height="256"><path d="M301.397333 395.001173q93.60384-94.467413 123.938134-105.734826 16.46592-6.065493 10.397013-20.800854-3.464533-13.86496-62.399147-42.46528-18.199893-8.669867-74.533546 15.598934-81.466027 29.467307-129.133227 32.068266-19.06688 0-12.1344 17.332907 6.068907 11.264 23.401813 19.933867 26.862933 13.86496 56.333654-4.334934 12.997973-6.065493 78.865066-39.867733 13.001387-5.198507 23.401814 1.733973 11.264 7.799467 6.065493 19.933867-25.99936 42.468693-55.466667 95.3344c-13.001387 22.531413-6.93248 29.467307 11.264 11.264z" fill="#1488F5" p-id="1668"></path><path d="M337.800533 494.667093q-8.669867-67.601067-36.399786-99.669333l-11.267414-11.264q-6.065493-6.065493-14.731946-10.400427-8.669867-6.065493-13.868374 0.866987-3.467947 3.467947 2.60096 15.598933 24.2688 52.86912 32.93184 125.668694l2.60096 35.5328q0 6.065493 0.866987 13.86496 3.467947 58.067627-6.93248 110.933333-7.80288 50.26816-20.800853 62.40256-5.20192 2.597547-82.333014-25.135787-8.669867-3.464533-14.73536-0.866986-5.198507 0.866987 7.80288 13.001386 49.39776 50.264747 76.264107 90.999467 13.868373 16.46592 30.334293 10.400427 20.800853-8.669867 39.000747-57.20064 24.2688-88.398507 11.264-245.265067l-2.597547-29.467307z" fill="#1488F5" p-id="1669"></path><path d="M340.401493 524.1344q54.59968-41.601707 54.59968-50.26816v-0.866987q-6.068907-3.464533-15.598933 0-20.800853 10.400427-41.601707 21.66784l-40.73472 20.800854q-67.597653 32.064853-142.1312 69.331626-16.469333 7.799467-43.33568 11.264-11.264 3.47136-11.264 12.137814 0 11.264 9.53344 17.332906 21.664427 10.400427 51.99872 21.664427 8.666453 0.866987 18.199894-7.799467 33.798827-34.665813 119.599786-88.398506l40.73472-26.866347zM555.332267 320.467627q2.60096-2.60096 7.799466-4.334934 45.069653-20.800853 78.86848-43.332266 37.266773-24.2688 71.932587-36.399787 16.46592-3.467947 18.199893-11.267413 0.866987-10.400427-11.264-19.06688-21.66784-11.264-64.136533-19.933867-15.598933-3.464533-26.862933-0.866987-6.068907 3.467947-5.20192 14.73536 0.866987 32.064853-123.067734 123.931307c-20.800853 15.598933-15.598933 28.603733 7.799467 17.332907q6.068907-3.464533 18.199893-7.799467l27.733334-12.997973z" fill="#1488F5" p-id="1670"></path><path d="M501.599573 323.93216q-12.997973-11.264-33.798826-19.06688-16.46592-7.799467-25.99936-2.597547-8.669867 6.065493-3.467947 16.46592 15.598933 18.199893 15.598933 80.59904 0 130.000213-24.2688 214.0672-19.063467 67.601067-72.79616 164.666027-3.467947 6.068907-5.20192 10.400427-0.866987 8.669867 6.935894 6.93248 23.3984-2.597547 81.466026-105.731414 6.065493-13.868373 12.997974-29.467306 39.867733-107.465387 46.800213-236.598614 2.60096-62.40256 9.53344-82.336426c2.60096-10.397013 2.60096-10.397013-7.799467-17.332907zM595.2 360.331947q-0.866987-10.397013-8.669867-17.332907-18.19648-18.199893-31.197866-22.531413c-22.531413-13.001387-42.46528-7.799467-27.733334 12.997973q20.800853 20.800853 19.933867 65.000107 7.799467 228.80256-9.53344 305.066666-3.464533 26.866347-14.731947 42.468694-11.267413 19.06688-1.733973 38.997333 11.264 29.467307 26.866347 39.867733 10.400427 6.068907 20.800853-11.264 21.664427-36.4032 100.532907-129.13664 2.60096-3.464533 4.334933-5.198506c16.46592-19.933867 12.130987-28.60032-9.53344-14.731947q-72.802987 46.7968-78.001493 45.933227-6.065493-3.467947-6.93248-17.33632 2.597547-258.266453 14.731946-322.399574l0.866987-10.400426z" fill="#1488F5" p-id="1671"></path><path d="M674.065067 679.266987q16.469333 25.99936 33.80224 55.466666 6.065493 11.264 15.598933 13.86496 6.065493 0.866987 12.1344-5.198506 6.065493-7.799467 6.065493-27.733334 0.866987-29.467307-71.0656-82.333013-8.669867-6.065493-13.001386-5.20192-3.464533 0.866987-5.198507 9.53344 0 5.20192 12.130987 26.866347l9.53344 14.73536zM594.333013 370.732373q26.866347 23.401813 39.867734 57.20064 109.19936 249.6 136.932693 266.069334 73.66656 18.19648 127.399253 20.79744 13.868373 0.866987 20.800854-3.467947 5.198507-5.198507-3.467947-10.397013-119.599787-73.66656-175.93344-154.269014-44.199253-63.266133-97.06496-163.79904-6.068907-16.46592-20.800853-21.66784-20.800853-6.065493-26.866347-0.866986c-10.400427 1.733973-10.400427 1.733973-0.866987 10.400426z" fill="#1488F5" p-id="1672"></path></svg>